<svg xmlns="http://www.w3.org/2000/svg" viewBox="0 0 400 500" width="400" height="500">
  <!-- Weißer Hintergrund -->
  <rect width="400" height="500" fill="#FFFFFF"/>
  
  <!-- Dekorativer ovaler Rahmen im Stil um 1900 -->
  <ellipse cx="200" cy="250" rx="175" ry="220" fill="none" stroke="#A63437" stroke-width="2" opacity="0.3"/>
  <ellipse cx="200" cy="250" rx="165" ry="208" fill="none" stroke="#A63437" stroke-width="4"/>
  
  <!-- Klassische Profilsilhouette - Person mit hochgesteckter Frisur, nach links blickend -->
  <path d="
    M 280 430
    Q 260 430, 250 420
    Q 240 410, 242 390
    L 245 360
    Q 248 340, 250 320
    L 252 295
    Q 254 280, 260 268
    Q 268 252, 275 245
    Q 282 238, 285 225
    Q 288 210, 285 198
    Q 280 185, 270 178
    Q 258 170, 250 172
    Q 242 174, 238 182
    Q 235 188, 235 195
    Q 235 202, 230 208
    Q 222 218, 210 222
    Q 195 228, 180 225
    Q 168 222, 160 215
    Q 150 205, 148 192
    Q 146 178, 152 165
    Q 158 152, 170 145
    Q 180 139, 188 138
    Q 195 137, 200 132
    Q 208 125, 210 115
    Q 212 105, 218 98
    Q 228 88, 245 85
    Q 265 82, 282 90
    Q 298 98, 308 115
    Q 315 130, 315 148
    Q 315 165, 308 180
    Q 302 192, 295 200
    Q 290 206, 292 215
    Q 295 228, 300 242
    Q 305 258, 305 275
    Q 305 295, 298 318
    Q 292 340, 290 365
    Q 288 390, 295 410
    Q 300 425, 295 432
    Q 290 438, 280 435
    Z
  " fill="#A63437"/>
  
  <!-- Hochgesteckte Frisur - Gibson Girl Stil -->
  <path d="
    M 218 98
    Q 225 80, 245 72
    Q 270 65, 295 75
    Q 318 85, 328 105
    Q 335 125, 328 145
    Q 322 160, 310 170
    Q 300 178, 295 180
    Q 300 165, 298 150
    Q 296 135, 290 125
    Q 282 112, 270 105
    Q 258 98, 245 100
    Q 232 102, 225 110
    Q 220 105, 218 98
    Z
  " fill="#A63437"/>
  
  <!-- Haarknoten / Chignon -->
  <ellipse cx="320" cy="120" rx="22" ry="28" fill="#A63437"/>
  <ellipse cx="328" cy="138" rx="12" ry="15" fill="#A63437"/>
  
  <!-- Haarwelle oben -->
  <path d="
    M 245 72
    Q 260 60, 285 62
    Q 308 65, 322 80
    Q 330 90, 328 105
    Q 315 85, 295 78
    Q 270 70, 250 78
    Q 245 75, 245 72
    Z
  " fill="#A63437"/>
  
</svg>
